<svg width="40" height="40" viewBox="0 0 40 40" fill="none" xmlns="http://www.w3.org/2000/svg">
<path d="M29.6871 17.6051C29.4864 17.8029 29.2144 17.914 28.9309 17.914C28.6473 17.914 28.3753 17.8029 28.1747 17.6051L21.0837 10.6048V30.9436C21.0837 31.2238 20.971 31.4925 20.7703 31.6906C20.5696 31.8887 20.2974 32 20.0136 32C19.7298 32 19.4577 31.8887 19.257 31.6906C19.0563 31.4925 18.9436 31.2238 18.9436 30.9436V10.6048L11.8526 17.6051C11.7218 17.7442 11.5554 17.8458 11.371 17.8993C11.1866 17.9529 10.991 17.9563 10.8048 17.9093C10.6185 17.8623 10.4486 17.7666 10.3129 17.6323C10.1771 17.4979 10.0806 17.3299 10.0335 17.1459C9.98578 16.9623 9.98911 16.7694 10.0431 16.5874C10.0971 16.4055 10.1997 16.2413 10.3402 16.1121L19.2575 7.30894C19.4581 7.11112 19.7301 7 20.0136 7C20.2972 7 20.5692 7.11112 20.7698 7.30894L29.6871 16.1121C29.8874 16.3102 30 16.5787 30 16.8586C30 17.1385 29.8874 17.407 29.6871 17.6051Z" fill="white"/>
</svg>
