<svg width="36" height="36" viewBox="0 0 36 36" fill="none" xmlns="http://www.w3.org/2000/svg">
<path d="M18 0C8.05894 0 0 8.05894 0 18C0 27.9416 8.05894 36 18 36C27.9416 36 36 27.9416 36 18C36 8.05894 27.9416 0 18 0ZM18 33.7854C9.31556 33.7854 2.25 26.6844 2.25 17.9999C2.25 9.31549 9.31556 2.24993 18 2.24993C26.6844 2.24993 33.75 9.31553 33.75 17.9999C33.75 26.6843 26.6844 33.7854 18 33.7854ZM25.1837 11.4137L14.6227 22.041L9.86678 17.2851C9.42746 16.8458 8.71534 16.8458 8.27547 17.2851C7.83615 17.7244 7.83615 18.4365 8.27547 18.8758L13.8437 24.4446C14.283 24.8833 14.9951 24.8833 15.435 24.4446C15.4856 24.3939 15.5289 24.3388 15.5683 24.2814L26.7756 13.005C27.2143 12.5657 27.2143 11.8535 26.7756 11.4137C26.3357 10.9744 25.6236 10.9744 25.1837 11.4137Z" fill="black"/>
</svg>
