<svg width="40" height="40" viewBox="0 0 40 40" fill="none" xmlns="http://www.w3.org/2000/svg">
<path id="myPath" d="M38.4968 20C38.4968 30.2155 30.2155 38.4968 20 38.4968C14.4754 38.4968 1.50317 38.4968 1.50317 38.4968C1.50317 38.4968 1.50317 24.691 1.50317 20C1.50317 9.78447 9.78447 1.50317 20 1.50317C30.2155 1.50317 38.4968 9.78447 38.4968 20Z" fill="#02ABEE"/>
<path fill-rule="evenodd" clip-rule="evenodd" d="M20 3.00639C10.6147 3.00639 3.00639 10.6147 3.00639 20V36.9936H20C29.3853 36.9936 36.9936 29.3853 36.9936 20C36.9936 10.6147 29.3853 3.00639 20 3.00639ZM1.50319 38.4968C0 38.4968 0 38.4968 0 38.4966V20C0 8.9543 8.9543 0 20 0C31.0457 0 40 8.9543 40 20C40 31.0457 31.0457 40 20 40H1.50334C1.50324 40 1.50319 40 1.50319 38.4968ZM1.50319 38.4968L1.50334 40C0.673151 40 0 39.3268 0 38.4966L1.50319 38.4968Z" fill="black"/>
<path fill-rule="evenodd" clip-rule="evenodd" d="M9.24854 14.4509C9.24854 13.6208 9.92154 12.9478 10.7517 12.9478H27.3989C28.229 12.9478 28.902 13.6208 28.902 14.4509C28.902 15.2811 28.229 15.9541 27.3989 15.9541H10.7517C9.92154 15.9541 9.24854 15.2811 9.24854 14.4509Z" fill="white"/>
<path fill-rule="evenodd" clip-rule="evenodd" d="M9.24854 21.8499C9.24854 21.0197 9.92154 20.3467 10.7517 20.3467H27.3989C28.229 20.3467 28.902 21.0197 28.902 21.8499C28.902 22.6801 28.229 23.3531 27.3989 23.3531H10.7517C9.92154 23.3531 9.24854 22.6801 9.24854 21.8499Z" fill="white"/>
<path fill-rule="evenodd" clip-rule="evenodd" d="M9.24854 29.2483C9.24854 28.4181 9.92154 27.7451 10.7517 27.7451H20.0001C20.8303 27.7451 21.5033 28.4181 21.5033 29.2483C21.5033 30.0785 20.8303 30.7515 20.0001 30.7515H10.7517C9.92154 30.7515 9.24854 30.0785 9.24854 29.2483Z" fill="white"/>
</svg>
