<svg width="36" height="36" viewBox="0 0 36 36" fill="none" xmlns="http://www.w3.org/2000/svg">
<path fill-rule="evenodd" clip-rule="evenodd" d="M18 0.00180008C8.05861 0.00180008 1.39932e-05 8.0604 1.39932e-05 18.0018C-0.0032979 20.6541 0.581323 23.2741 1.71181 25.6734L0.0378138 33.84C-0.0217859 34.1316 -0.00815424 34.4334 0.0774886 34.7184C0.163131 35.0034 0.318113 35.2628 0.52856 35.4732C0.739007 35.6837 0.998352 35.8387 1.28338 35.9243C1.56841 36.01 1.87022 36.0236 2.16181 35.964L10.3284 34.29C12.6576 35.388 15.2604 36 18 36C27.9414 36 36 27.9432 36 18C36 8.0604 27.9414 0 18 0V0.00180008Z" fill="#4553D4"/>
</svg>
