<svg width="36" height="36" viewBox="0 0 36 36" fill="none" xmlns="http://www.w3.org/2000/svg">
<path fill-rule="evenodd" clip-rule="evenodd" d="M1.66227e-05 18C1.66227e-05 8.0586 8.05861 0 18 0C27.9414 0 36 8.0586 36 18C36 27.9414 27.9414 36 18 36C15.3477 36.0036 12.7276 35.419 10.3284 34.2882L2.16182 35.9622C1.87023 36.0218 1.56841 36.0082 1.28338 35.9225C0.998354 35.8369 0.739009 35.6819 0.528563 35.4714C0.318116 35.261 0.163134 35.0016 0.0774912 34.7166C-0.00815161 34.4316 -0.0217833 34.1298 0.0378164 33.8382L1.71182 25.6716C0.581041 23.2724 -0.00359401 20.6523 1.66227e-05 18ZM9.90001 15.3C9.18393 15.3 8.49717 15.5845 7.99082 16.0908C7.48448 16.5972 7.20001 17.2839 7.20001 18V18.018C7.20001 18.7341 7.48448 19.4208 7.99082 19.9272C8.49717 20.4335 9.18393 20.718 9.90001 20.718H9.91801C10.6341 20.718 11.3209 20.4335 11.8272 19.9272C12.3335 19.4208 12.618 18.7341 12.618 18.018V18C12.618 17.2839 12.3335 16.5972 11.8272 16.0908C11.3209 15.5845 10.6341 15.3 9.91801 15.3H9.90001ZM18 15.3C17.2839 15.3 16.5972 15.5845 16.0908 16.0908C15.5845 16.5972 15.3 17.2839 15.3 18V18.018C15.3 18.7341 15.5845 19.4208 16.0908 19.9272C16.5972 20.4335 17.2839 20.718 18 20.718H18.018C18.7341 20.718 19.4208 20.4335 19.9272 19.9272C20.4335 19.4208 20.718 18.7341 20.718 18.018V18C20.718 17.2839 20.4335 16.5972 19.9272 16.0908C19.4208 15.5845 18.7341 15.3 18.018 15.3H18ZM23.4 18C23.4 17.2839 23.6845 16.5972 24.1908 16.0908C24.6972 15.5845 25.3839 15.3 26.1 15.3H26.118C26.8341 15.3 27.5208 15.5845 28.0272 16.0908C28.5335 16.5972 28.818 17.2839 28.818 18V18.018C28.818 18.7341 28.5335 19.4208 28.0272 19.9272C27.5208 20.4335 26.8341 20.718 26.118 20.718H26.1C25.3839 20.718 24.6972 20.4335 24.1908 19.9272C23.6845 19.4208 23.4 18.7341 23.4 18.018V18Z" fill="#4553D4"/>
</svg>
